<?xml version="1.0" encoding="UTF-8"?>
<!DOCTYPE svg PUBLIC "-//W3C//DTD SVG 1.1//EN" "http://www.w3.org/Graphics/SVG/1.1/DTD/svg11.dtd">
<!-- Creator: CorelDRAW 2018 (64 Bit Versão de avaliação) -->
<svg xmlns="http://www.w3.org/2000/svg" xml:space="preserve" width="66.681mm" height="55.8585mm" version="1.1" style="shape-rendering:geometricPrecision; text-rendering:geometricPrecision; image-rendering:optimizeQuality; fill-rule:evenodd; clip-rule:evenodd"
viewBox="0 0 2243.23 1879.15"
 xmlns:xlink="http://www.w3.org/1999/xlink">
 <defs>
  <style type="text/css">
   <![CDATA[
    .fil0 {fill:#FEFEFE}
   ]]>
  </style>
 </defs>
 <g id="Camada_x0020_1">
  <metadata id="CorelCorpID_0Corel-Layer"/>
  <path class="fil0" d="M851.11 856.87c-11.07,40.39 -21.32,158.14 -7.99,206.12 18.02,64.85 83.9,55.96 154.53,55.37l1044.44 -0.19c103.01,0.28 141.22,15.36 178.14,-31.49 27.83,-35.54 28.18,-147.47 12.84,-198.39 -18.9,-62.76 -90.23,-51.29 -155.31,-50.82 -228.42,1.66 -1139.8,-21.42 -1226.65,19.41z"/>
  <path class="fil0" d="M2199.77 1546.14c-59.03,-19.65 -943.04,-8.3 -1130.84,-8.34 -183.98,-0.04 -232.62,-42.55 -230.91,156.32 1.46,169.2 109.87,122.77 266.51,122.77l949.44 0.03c71.79,0.28 129.7,15.01 165.67,-30.46 34.53,-41.8 31.49,-199.24 -19.87,-240.32z"/>
  <path class="fil0" d="M838.88 245.76c0,102.35 -14.34,172.18 99.51,172.18l1198.66 0c117.07,0 100.97,-55.92 100.97,-184.04 0,-73.5 -29.95,-96.5 -100.97,-96.5l-1198.66 0c-88.65,0 -99.51,20.14 -99.51,108.37z"/>
  <path class="fil0" d="M0.52 1005.31c18.01,44.71 161.27,176.42 200.71,215.13 59.94,58.81 74.94,45.45 124.34,-9l302.15 -303.18c28.21,-27.97 89.83,-62.5 61.64,-115.3 -13.07,-24.49 -77.18,-81.19 -107.02,-97.72 -70.22,7.36 -129.29,93.59 -172.89,137.17 -41.58,41.56 -112.42,126.49 -164.47,152.56 -84.96,-179.6 -229.21,-89.46 -244.48,20.33z"/>
  <path class="fil0" d="M256.47 287.21c-18.12,-23.44 -97.15,-102.72 -128.63,-106.5 -44.27,-5.32 -112.06,76.14 -127.77,112.52 -4.46,41.24 227.04,265.93 261.85,265.47 56.07,-17.96 182.22,-161.14 226.35,-205.27 31.27,-31.27 207.23,-193.13 208.97,-227.64 1.38,-27.35 -74.45,-109.14 -91.63,-117.91 -58.22,-29.72 -98.43,32.02 -127.99,61.94 -75.04,75.95 -146.96,144.63 -221.14,217.38z"/>
  <path class="fil0" d="M73.58 1729.25c54.37,238.32 477.13,183.85 408.99,-102.25 -60.73,-254.97 -474.29,-183.97 -408.99,102.25z"/>
 </g>
</svg>
