<?xml version="1.0" encoding="UTF-8"?>
<!DOCTYPE svg PUBLIC "-//W3C//DTD SVG 1.1//EN" "http://www.w3.org/Graphics/SVG/1.1/DTD/svg11.dtd">
<!-- Creator: CorelDRAW 2018 (64 Bit Versão de avaliação) -->
<svg xmlns="http://www.w3.org/2000/svg" xml:space="preserve" width="76.9267mm" height="51.2632mm" version="1.1" style="shape-rendering:geometricPrecision; text-rendering:geometricPrecision; image-rendering:optimizeQuality; fill-rule:evenodd; clip-rule:evenodd"
viewBox="0 0 7692.66 5126.31"
 xmlns:xlink="http://www.w3.org/1999/xlink">
 <defs>
  <style type="text/css">
   <![CDATA[
    .fil0 {fill:white}
   ]]>
  </style>
 </defs>
 <g id="Camada_x0020_1">
  <metadata id="CorelCorpID_0Corel-Layer"/>
  <path class="fil0" d="M3526.95 15.8c2015.64,-170.53 3417.52,1069.68 4081.4,2276.68 141.17,256.65 90.01,388.91 -42.72,615.49 -1908.85,3258.55 -6119.08,2663.33 -7483.71,-74.74 -131.17,-263.19 -94.1,-360.94 35.4,-598.97 94.16,-173.09 211.51,-354.28 316.26,-496.23 255.51,-346.23 470.68,-540.7 781.87,-805.4 542.31,-461.29 1366.7,-836.9 2311.5,-916.83zm38.23 1310.91c946.76,-364.54 2227.47,1053.71 1175.71,2143.75 -339.42,351.78 -1018.39,529.24 -1542.03,197.81 -429.22,-271.68 -701.94,-696.08 -596.21,-1430.51 326.78,127.57 574.25,196.09 832.76,-73.3 371.44,-387.06 97.17,-636.57 122.59,-816.5 0.56,-3.94 8.92,-13.98 7.18,-21.25zm-111.06 -639.62c-922.19,185.68 -1743.31,1114.12 -1489.87,2279.89 197.01,906.2 1121.47,1751.11 2301.28,1476.14 902.1,-210.26 1685.72,-1095.53 1466.59,-2248.73 -179.35,-943.87 -1120.32,-1740.38 -2278,-1507.3z"/>
  <path class="fil0" d="M4740.88 3470.46c1051.76,-1090.04 -228.95,-2508.29 -1175.71,-2143.75 1.74,7.27 -6.62,17.31 -7.18,21.25 -25.42,179.93 248.85,429.44 -122.59,816.5 -258.51,269.39 -505.98,200.87 -832.76,73.3 -105.73,734.43 166.99,1158.83 596.21,1430.51 523.64,331.43 1202.61,153.97 1542.03,-197.81z"/>
 </g>
</svg>
