<?xml version="1.0" encoding="UTF-8"?>
<!DOCTYPE svg PUBLIC "-//W3C//DTD SVG 1.1//EN" "http://www.w3.org/Graphics/SVG/1.1/DTD/svg11.dtd">
<!-- Creator: CorelDRAW 2018 (64 Bit Versão de avaliação) -->
<svg xmlns="http://www.w3.org/2000/svg" xml:space="preserve" width="13.3033mm" height="13.3046mm" version="1.1" style="shape-rendering:geometricPrecision; text-rendering:geometricPrecision; image-rendering:optimizeQuality; fill-rule:evenodd; clip-rule:evenodd"
viewBox="0 0 756.52 756.59"
 xmlns:xlink="http://www.w3.org/1999/xlink">
 <defs>
  <style type="text/css">
   <![CDATA[
    .fil0 {fill:#FEFEFE}
   ]]>
  </style>
 </defs>
 <g id="Camada_x0020_1">
  <metadata id="CorelCorpID_0Corel-Layer"/>
  <path class="fil0" d="M549.46 134.54c72.94,-25.65 109.7,86.15 36.38,111.08 -73.98,25.15 -113.42,-83.99 -36.38,-111.08zm-254.36 55.09c-36.57,0 -148.51,-4.37 -175.8,3.09 -44.39,12.14 -56.44,59.04 -77.36,100.88 -14.72,29.43 -62.81,98.59 -31.63,124.75 19.56,16.41 136.61,7.77 172.15,8.93 -29.33,56.54 -87.32,40.72 9.04,137.07 13.56,13.56 40.38,48.26 64.02,51.41 40.57,5.41 51.52,-29.24 74.1,-41.77 0,33.82 -7.38,151.65 7.82,171.74 24.52,32.42 95.52,-16.73 124.91,-31.43 127.96,-64.01 103.5,-40.15 104.56,-252.56 53.09,-21.56 130.16,-102.95 158.1,-163.78 18.13,-39.48 29,-84.55 30.92,-133.39 1.25,-31.73 2.21,-128.54 -17.25,-147.38 -18.75,-18.15 -111.75,-17.8 -142.59,-16.83 -91.56,2.88 -169.74,36.42 -231.27,96.27 -18.5,17.99 -57.9,65.9 -69.73,92.99z"/>
 </g>
</svg>
