<?xml version="1.0" encoding="UTF-8"?>
<!DOCTYPE svg PUBLIC "-//W3C//DTD SVG 1.1//EN" "http://www.w3.org/Graphics/SVG/1.1/DTD/svg11.dtd">
<!-- Creator: CorelDRAW 2018 (64 Bit Versão de avaliação) -->
<svg xmlns="http://www.w3.org/2000/svg" xml:space="preserve" width="5.9267mm" height="5.9281mm" version="1.1" style="shape-rendering:geometricPrecision; text-rendering:geometricPrecision; image-rendering:optimizeQuality; fill-rule:evenodd; clip-rule:evenodd"
viewBox="0 0 592.68 592.82"
 xmlns:xlink="http://www.w3.org/1999/xlink">
 <defs>
  <style type="text/css">
   <![CDATA[
    .fil0 {fill:white}
   ]]>
  </style>
 </defs>
 <g id="Camada_x0020_1">
  <metadata id="CorelCorpID_0Corel-Layer"/>
  <g id="_2753413883760">
   <path class="fil0" d="M97.77 448.19c5.54,-16.24 7.09,-14.95 1.19,-23.32 -17.91,-25.35 -30.33,-55.07 -37.86,-91.25 -14.95,-71.79 7.79,-144.23 51.28,-198.24l15.58 -17.48c2.96,-3.06 5.62,-4.55 8.75,-7.74 11.2,-11.43 31.86,-24.91 46.4,-33.33 28.14,-16.31 61.54,-26.05 99.67,-29.72 69.49,-6.69 152.48,24.8 197.13,76.51 21.13,24.46 29.87,33.81 45.28,67.39 30.98,67.47 26.67,145.28 -6.82,210.44 -5.22,10.16 -23,36.71 -29.35,43.52 -1.43,1.54 -2.58,2.25 -3.98,3.77 -2.67,2.91 -4.26,5.58 -7.17,8.39 -15.71,15.09 -15.91,15.52 -35.22,29.89 -18.03,13.41 -41.83,24.72 -63.78,32.32 -35.46,12.27 -74.69,15.1 -113.8,9.8 -37.28,-5.04 -66.54,-18.84 -94.4,-35.09 -6.34,-3.7 -11.53,0.15 -24.07,4.13l-73.35 23.01 24.52 -73zm-97.77 144.63c10.84,-2.34 104.64,-33.23 119.92,-37.88 50.06,-15.22 32.88,-15.81 58.27,-4.26 18.58,8.47 37.39,15.13 59,19.96 97.76,21.9 186.08,-8.5 245.84,-55.88 10.23,-8.11 13.08,-11.57 21.16,-18.67 19.08,-16.77 38.24,-44.03 51.74,-66.82 20.1,-33.91 31.62,-75.08 35.89,-121.65 4.09,-44.64 -7.12,-97.47 -23.08,-132.87 -24.22,-53.68 -61.31,-97.48 -109.11,-128.09 -16.42,-10.51 -32.24,-18.57 -52.09,-26.5 -124.72,-49.78 -264.09,-3.27 -338.44,95.25 -48.25,63.96 -73.39,148.62 -48.92,247.54 5.71,23.09 17.22,50.13 29.01,69.95 3.63,6.1 2.55,6.94 0.27,13.59l-39.97 117.69c-3.01,8.94 -7.44,19.95 -9.5,28.64z"/>
   <path class="fil0" d="M160.19 232.58c2.44,21.85 11.66,40.99 21.61,56.01 14.55,21.97 32.61,45.37 51.5,64.12 2.22,2.19 3.01,2.23 5.05,4.68 3.56,4.3 10.3,9.65 14.88,13.31 31.04,24.79 64.02,40.29 103.91,50.59 26.1,6.74 41.1,3.89 62.02,-7.35 16.72,-8.97 28.41,-21.61 29.98,-47.23 0.92,-14.88 -2.27,-13.15 -18.13,-21.2 -69.75,-35.39 -49.86,-25.73 -81.96,8.07 -2.93,3.07 -6.33,7.25 -13.7,5.14 -15.03,-4.31 -37.37,-18.57 -49.65,-27.33 -16.73,-11.94 -50.25,-49.45 -52.25,-62.37 -0.95,-6.09 3.19,-8.78 6.29,-12.11 24.91,-26.69 18.5,-27.1 2.83,-65.01 -6.99,-16.91 -10.16,-33.56 -23.19,-34.11 -5.2,-0.23 -14.66,-0.82 -19.47,-0.12 -20.05,2.9 -43.62,40.11 -39.72,74.91z"/>
  </g>
 </g>
</svg>
