<?xml version="1.0" encoding="UTF-8"?>
<!DOCTYPE svg PUBLIC "-//W3C//DTD SVG 1.1//EN" "http://www.w3.org/Graphics/SVG/1.1/DTD/svg11.dtd">
<!-- Creator: CorelDRAW 2018 (64 Bit Versão de avaliação) -->
<svg xmlns="http://www.w3.org/2000/svg" xml:space="preserve" width="67.7332mm" height="67.7332mm" version="1.1" style="shape-rendering:geometricPrecision; text-rendering:geometricPrecision; image-rendering:optimizeQuality; fill-rule:evenodd; clip-rule:evenodd"
viewBox="0 0 6773.32 6773.32"
 xmlns:xlink="http://www.w3.org/1999/xlink">
 <defs>
  <style type="text/css">
   <![CDATA[
    .fil1 {fill:none;fill-rule:nonzero}
    .fil0 {fill:#5C904A;fill-rule:nonzero}
   ]]>
  </style>
 </defs>
 <g id="Camada_x0020_1">
  <metadata id="CorelCorpID_0Corel-Layer"/>
  <path class="fil0" d="M6773.33 3386.66c0,-1870.41 -1516.26,-3386.67 -3386.67,-3386.67 -1870.41,0 -3386.67,1516.26 -3386.67,3386.67 0,1690.38 1238.46,3091.46 2857.5,3345.53l0 -2366.57 -859.89 0 0 -978.96 859.89 0 0 -746.13c0,-848.78 505.61,-1317.62 1279.2,-1317.62 370.53,0 758.1,66.14 758.1,66.14l0 833.44 -427.05 0c-420.71,0 -551.91,261.06 -551.91,528.88l0 635.29 939.27 0 -150.15 978.96 -789.12 0 0 2366.57c1619.04,-254.07 2857.5,-1655.15 2857.5,-3345.53z"/>
  <path class="fil1" d="M4704.95 4365.62l150.15 -978.96 -939.27 0 0 -635.29c0,-267.82 131.2,-528.88 551.91,-528.88l427.05 0 0 -833.44c0,0 -387.57,-66.14 -758.1,-66.14 -773.59,0 -1279.2,468.84 -1279.2,1317.62l0 746.13 -859.89 0 0 978.96 859.89 0 0 2366.57c172.43,27.05 349.15,41.14 529.17,41.14 180.02,0 356.75,-14.09 529.17,-41.14l0 -2366.57 789.12 0z"/>
 </g>
</svg>
