<?xml version="1.0" encoding="UTF-8"?>
<!DOCTYPE svg PUBLIC "-//W3C//DTD SVG 1.1//EN" "http://www.w3.org/Graphics/SVG/1.1/DTD/svg11.dtd">
<!-- Creator: CorelDRAW 2018 (64 Bit Versão de avaliação) -->
<svg xmlns="http://www.w3.org/2000/svg" xml:space="preserve" width="67.7334mm" height="67.7334mm" version="1.1" style="shape-rendering:geometricPrecision; text-rendering:geometricPrecision; image-rendering:optimizeQuality; fill-rule:evenodd; clip-rule:evenodd"
viewBox="0 0 6773.34 6773.34"
 xmlns:xlink="http://www.w3.org/1999/xlink">
 <defs>
  <style type="text/css">
   <![CDATA[
    .fil0 {fill:#5C904A}
   ]]>
  </style>
 </defs>
 <g id="Camada_x0020_1">
  <metadata id="CorelCorpID_0Corel-Layer"/>
  <g id="instagram.svg">
   <g>
    <g>
     <path class="fil0" d="M3386.66 610.23c904.29,0 1011.39,3.44 1368.5,19.73 330.2,15.07 509.52,70.24 628.87,116.61 158.07,61.44 270.9,134.84 389.4,253.34 118.5,118.5 191.9,231.33 253.33,389.4 46.38,119.35 101.55,298.67 116.62,628.86 16.29,357.12 19.73,464.22 19.73,1368.51 0,904.28 -3.44,1011.38 -19.73,1368.49 -15.07,330.2 -70.24,509.52 -116.62,628.87 -61.43,158.07 -134.83,270.9 -253.33,389.4 -118.5,118.51 -231.33,191.91 -389.4,253.33 -119.35,46.38 -298.67,101.55 -628.87,116.62 -357.06,16.3 -464.16,19.74 -1368.5,19.74 -904.33,0 -1011.44,-3.44 -1368.49,-19.74 -330.2,-15.07 -509.52,-70.24 -628.86,-116.62 -158.08,-61.42 -270.91,-134.82 -389.41,-253.33 -118.51,-118.5 -191.91,-231.33 -253.33,-389.4 -46.38,-119.35 -101.55,-298.67 -116.62,-628.85 -16.3,-357.13 -19.74,-464.23 -19.74,-1368.51 0,-904.29 3.44,-1011.39 19.74,-1368.5 15.07,-330.2 70.24,-509.52 116.62,-628.87 61.42,-158.07 134.82,-270.9 253.33,-389.4 118.5,-118.5 231.33,-191.9 389.41,-253.34 119.34,-46.37 298.66,-101.54 628.84,-116.61 357.13,-16.29 464.23,-19.73 1368.51,-19.73l0 0zm0 -610.23c-919.77,0 -1035.08,3.9 -1396.31,20.38 -360.48,16.46 -606.66,73.7 -822.09,157.43 -222.7,86.54 -411.57,202.35 -599.84,390.62 -188.28,188.28 -304.08,377.14 -390.63,599.84 -83.72,215.44 -140.97,461.61 -157.42,822.1 -16.48,361.21 -20.37,476.54 -20.37,1396.31 0,919.77 3.89,1035.1 20.37,1396.31 16.45,360.48 73.7,606.66 157.42,822.09 86.55,222.69 202.35,411.57 390.63,599.84 188.27,188.28 377.14,304.08 599.84,390.63 215.43,83.72 461.61,140.97 822.09,157.42 361.23,16.48 476.54,20.37 1396.31,20.37 919.77,0 1035.1,-3.89 1396.31,-20.37 360.49,-16.45 606.66,-73.7 822.1,-157.42 222.7,-86.55 411.56,-202.35 599.84,-390.63 188.27,-188.27 304.08,-377.14 390.62,-599.84 83.73,-215.43 140.97,-461.61 157.43,-822.09 16.48,-361.21 20.38,-476.54 20.38,-1396.31 0,-919.77 -3.9,-1035.1 -20.38,-1396.31 -16.46,-360.49 -73.7,-606.66 -157.43,-822.1 -86.54,-222.7 -202.35,-411.56 -390.62,-599.84 -188.28,-188.27 -377.14,-304.08 -599.84,-390.62 -215.44,-83.73 -461.61,-140.97 -822.1,-157.43 -361.21,-16.48 -476.54,-20.38 -1396.31,-20.38zm0 1647.57c-960.47,0 -1739.1,778.63 -1739.1,1739.11 0,960.47 778.63,1739.1 1739.1,1739.1 960.48,0 1739.11,-778.63 1739.11,-1739.1 0,-960.48 -778.63,-1739.11 -1739.11,-1739.11zm0 2868c-623.46,0 -1128.89,-505.43 -1128.89,-1128.89 0,-623.47 505.43,-1128.9 1128.89,-1128.9 623.47,0 1128.9,505.43 1128.9,1128.9 0,623.46 -505.43,1128.89 -1128.9,1128.89zm2214.21 -2936.71c0,224.45 -181.94,406.41 -406.39,406.41 -224.45,0 -406.41,-181.96 -406.41,-406.41 0,-224.45 181.96,-406.39 406.41,-406.39 224.45,0 406.39,181.94 406.39,406.39z"/>
    </g>
   </g>
  </g>
 </g>
</svg>
