<?xml version="1.0" encoding="UTF-8"?>
<!DOCTYPE svg PUBLIC "-//W3C//DTD SVG 1.1//EN" "http://www.w3.org/Graphics/SVG/1.1/DTD/svg11.dtd">
<!-- Creator: CorelDRAW 2018 (64 Bit Versão de avaliação) -->
<svg xmlns="http://www.w3.org/2000/svg" xml:space="preserve" width="61.2141mm" height="32.4588mm" version="1.1" style="shape-rendering:geometricPrecision; text-rendering:geometricPrecision; image-rendering:optimizeQuality; fill-rule:evenodd; clip-rule:evenodd"
viewBox="0 0 6121.42 3245.89"
 xmlns:xlink="http://www.w3.org/1999/xlink">
 <defs>
  <style type="text/css">
   <![CDATA[
    .fil5 {fill:#33CC66}
    .fil1 {fill:#E6E6E6}
    .fil3 {fill:#FF5356}
    .fil4 {fill:#FFD000}
    .fil0 {fill:#E6E6E6;fill-rule:nonzero}
    .fil2 {fill:#FF5356;fill-rule:nonzero}
   ]]>
  </style>
 </defs>
 <g id="Camada_x0020_1">
  <metadata id="CorelCorpID_0Corel-Layer"/>
  <path class="fil0" d="M2929.12 3245.62l168.92 -439.9 295.63 -775.98 -267.47 0 -184.76 554.27 -184.75 -554.27 -265.71 0 317.21 832.03 -153.57 383.85 274.5 0zm951.95 -622.89c-142.53,0 -181.23,-103.83 -181.23,-202.36 0,-96.79 42.23,-200.6 181.23,-200.6 137.25,0 179.48,103.81 179.48,200.6 0,98.53 -38.7,202.36 -179.48,202.36zm0 -608.83c-242.83,0 -443.42,161.88 -443.42,404.7 0,248.1 195.31,402.95 443.42,402.95 246.35,0 441.67,-154.85 441.67,-402.95 0,-242.82 -200.6,-404.7 -441.67,-404.7zm591.22 457.49c0,209.4 84.46,351.93 292.1,351.93 102.06,0 184.76,-45.76 237.54,-112.62l0 95.02 263.94 0 0 -775.98 -263.94 0 0 388.86c0,103.83 -65.11,193.57 -147.8,193.57 -82.7,0 -117.9,-51.04 -117.9,-140.78l0 -441.65 -263.94 0 0 441.65z"/>
  <path class="fil1" d="M5063.19 1593.59c377.57,-10.77 732.12,125.76 890.73,494.09 160.97,398.15 -7.8,838.11 -417.23,992.6 -118.57,43.64 -236.57,59.19 -362.56,58.33l-2473.97 -1.58 -45.54 108.6 2518.85 0.22c1297.62,7.57 1267.25,-1802.34 -117.15,-1759.11l6.87 106.85z"/>
  <path class="fil1" d="M5196.34 1268.05l-606.81 69.63 383.69 475.24c293.43,-716.52 -114.98,280.69 223.12,-544.87z"/>
  <polygon class="fil2" points="263.93,2805.71 263.93,1609.23 -0,1609.23 -0,2805.71 "/>
  <path id="1" class="fil2" d="M1082.11 2418.61c0,102.06 -79.18,193.55 -184.75,193.55 -105.57,0 -184.75,-91.49 -184.75,-193.55 0,-102.05 79.18,-193.54 184.75,-193.54 105.57,0 184.75,91.49 184.75,193.54zm263.93 -932.55l-263.93 0 0 638.71c-68.62,-84.46 -167.16,-112.61 -265.69,-112.61 -219.94,0 -385.34,191.79 -385.34,406.45 0,214.67 165.4,404.7 385.34,404.7 98.53,0 212.9,-31.68 265.69,-110.86l0 93.26 263.93 0 0 -1319.65z"/>
  <path id="2" class="fil2" d="M1796.48 2325.36c0,0 8.8,-144.28 174.19,-144.28 160.12,0 172.44,144.28 172.44,144.28l-346.63 0zm600 75.66c0,-248.1 -195.31,-388.86 -431.09,-388.86 -260.41,0 -452.2,163.64 -452.2,406.45 0,246.34 184.75,404.7 452.2,404.7 205.87,0 371.26,-102.06 417.01,-306.16l-269.21 0c-1.76,56.3 -59.82,117.89 -153.08,117.89 -103.81,0 -167.15,-95.02 -167.15,-184.76l601.76 0c0,-15.83 1.76,-33.43 1.76,-49.26z"/>
  <path class="fil3" d="M3526.45 334.46l-579.33 -334.46 -579.31 334.46 579.31 334.48 579.33 -334.48zm0 0z"/>
  <path class="fil4" d="M2989.16 1411.06l579.48 -334.56 0 -669.28 -579.48 334.55 0 669.29zm0 0z"/>
  <path class="fil5" d="M2325.59 407.22l0 669.28 579.47 334.56 0 -669.29 -579.47 -334.55zm0 0z"/>
 </g>
</svg>
