<?xml version="1.0" encoding="UTF-8"?>
<!DOCTYPE svg PUBLIC "-//W3C//DTD SVG 1.1//EN" "http://www.w3.org/Graphics/SVG/1.1/DTD/svg11.dtd">
<!-- Creator: CorelDRAW 2018 (64 Bit Versão de avaliação) -->
<svg xmlns="http://www.w3.org/2000/svg" xml:space="preserve" width="67.7175mm" height="67.7334mm" version="1.1" style="shape-rendering:geometricPrecision; text-rendering:geometricPrecision; image-rendering:optimizeQuality; fill-rule:evenodd; clip-rule:evenodd"
viewBox="0 0 3372.04 3372.83"
 xmlns:xlink="http://www.w3.org/1999/xlink">
 <defs>
  <style type="text/css">
   <![CDATA[
    .fil0 {fill:#5C904A}
   ]]>
  </style>
 </defs>
 <g id="Camada_x0020_1">
  <metadata id="CorelCorpID_0Corel-Layer"/>
  <g id="_2754292622832">
   <path class="fil0" d="M556.3 2549.9c31.5,-92.4 40.35,-85.07 6.77,-132.64 -101.88,-144.27 -172.56,-313.35 -215.42,-519.17 -85.08,-408.49 44.36,-820.66 291.75,-1127.94l88.69 -99.44c16.84,-17.4 31.94,-25.9 49.75,-44.07 63.76,-64.99 181.27,-141.67 264.02,-189.63 160.11,-92.75 350.15,-148.21 567.07,-169.08 395.36,-38.03 867.56,141.12 1121.6,435.33 120.19,139.14 169.91,192.34 257.63,383.38 176.24,383.91 151.72,826.63 -38.86,1197.33 -29.7,57.81 -130.82,208.88 -166.93,247.64 -8.16,8.71 -14.72,12.78 -22.67,21.43 -15.22,16.57 -24.23,31.76 -40.8,47.71 -89.37,85.9 -90.55,88.31 -200.41,170.06 -102.59,76.33 -238,140.67 -362.87,183.92 -201.76,69.82 -424.95,85.9 -647.46,55.75 -212.12,-28.7 -378.59,-107.21 -537.08,-199.67 -36.09,-21.04 -65.62,0.86 -136.97,23.49l-417.36 130.93 139.53 -415.35zm-556.3 822.92c61.7,-13.37 595.36,-189.07 682.31,-215.53 284.8,-86.63 187.07,-89.99 331.51,-24.23 105.74,48.16 212.74,86.04 335.73,113.56 556.21,124.57 1058.7,-48.39 1398.69,-317.97 58.2,-46.16 74.45,-65.82 120.43,-106.24 108.53,-95.37 217.54,-250.47 294.37,-380.14 114.33,-192.95 179.92,-427.21 204.17,-692.16 23.25,-253.98 -40.47,-554.55 -131.29,-755.92 -137.79,-305.46 -348.86,-554.67 -620.8,-728.79 -93.46,-59.81 -183.45,-105.68 -296.4,-150.77 -709.6,-283.27 -1502.51,-18.63 -1925.49,541.92 -274.56,363.89 -417.56,845.56 -278.36,1408.42 32.47,131.34 98,285.2 165.05,397.95 20.67,34.74 14.54,39.5 1.53,77.33l-227.37 669.59c-17.13,50.87 -42.33,113.5 -54.1,162.99z"/>
   <path class="fil0" d="M911.42 1323.23c13.92,124.31 66.38,233.23 122.96,318.68 82.81,125.01 185.54,258.16 293.04,364.8 12.63,12.51 17.13,12.72 28.7,26.67 20.25,24.43 58.63,54.89 84.69,75.71 176.56,141.06 364.22,229.22 591.21,287.83 148.45,38.32 233.82,22.13 352.83,-41.8 95.14,-51.07 161.64,-122.98 170.61,-268.75 5.21,-84.66 -12.92,-74.8 -103.21,-120.6 -396.84,-201.37 -283.65,-146.38 -466.31,45.89 -16.63,17.51 -35.97,41.3 -77.95,29.29 -85.51,-24.52 -212.62,-105.65 -282.45,-155.51 -95.23,-67.94 -285.92,-281.33 -297.31,-354.88 -5.38,-34.62 18.14,-49.93 35.83,-68.88 141.71,-151.86 105.2,-154.19 16.07,-369.87 -39.77,-96.23 -57.81,-190.93 -131.96,-194.1 -29.55,-1.26 -83.36,-4.65 -110.74,-0.68 -114.07,16.51 -248.21,228.22 -226.02,426.21z"/>
  </g>
 </g>
</svg>
